HIERARCHY
ROOT Hips
{
  OFFSET 51.5799 95.8538 1.15347
  CHANNELS 6 Xposition Yposition Zposition Zrotation Xrotation Yrotation
  JOINT spine
  {
    OFFSET 0 7.96568 0.458067
    CHANNELS 3 Zrotation Xrotation Yrotation
    JOINT spine1
    {
      OFFSET 0 10.2431 0
      CHANNELS 3 Zrotation Xrotation Yrotation
      JOINT spine2
      {
        OFFSET 0 9.81475 0
        CHANNELS 3 Zrotation Xrotation Yrotation
        JOINT Neck
        {
          OFFSET 0 25.1986 1.20138
          CHANNELS 3 Zrotation Xrotation Yrotation
          JOINT Head
          {
            OFFSET 0 7.61315 0
            CHANNELS 3 Zrotation Xrotation Yrotation
            End Site
            {
              OFFSET 0 18.4281 -6.07733
            }
          }
        }
        JOINT RightShoulder
        {
          OFFSET -4.1327 10.5992 -0.575451
          CHANNELS 3 Zrotation Xrotation Yrotation
          JOINT RightArm
          {
            OFFSET 0 13.9018 0
            CHANNELS 3 Zrotation Xrotation Yrotation
            JOINT RightArmRoll
            {
              OFFSET 0 7.01788 0
              CHANNELS 3 Zrotation Xrotation Yrotation
              JOINT RightForeArm
              {
                OFFSET 0 20.4406 0
                CHANNELS 3 Zrotation Xrotation Yrotation
                JOINT RightForeArmRoll
                {
                  OFFSET 0 7.87515 0
                  CHANNELS 3 Zrotation Xrotation Yrotation
                  JOINT RightHand
                  {
                    OFFSET 0 15.8037 0
                    CHANNELS 3 Zrotation Xrotation Yrotation
                    End Site
                    {
                      OFFSET 0 0 0
                    }
                  }
                }
              }
            }
          }
        }
        JOINT LeftShoulder
        {
          OFFSET 4.1327 10.5992 -0.575451
          CHANNELS 3 Zrotation Xrotation Yrotation
          JOINT LeftArm
          {
            OFFSET 0 13.9018 0
            CHANNELS 3 Zrotation Xrotation Yrotation
            JOINT LeftArmRoll
            {
              OFFSET 0 7.01789 0
              CHANNELS 3 Zrotation Xrotation Yrotation
              JOINT LeftForeArm
              {
                OFFSET 0 20.4406 0
                CHANNELS 3 Zrotation Xrotation Yrotation
                JOINT LeftForeArmRoll
                {
                  OFFSET 0 7.87515 0
                  CHANNELS 3 Zrotation Xrotation Yrotation
                  JOINT LeftHand
                  {
                    OFFSET 0 15.8037 0
                    CHANNELS 3 Zrotation Xrotation Yrotation
                    End Site
                    {
                      OFFSET 0 0 0
                    }
                  }
                }
              }
            }
          }
        }
      }
    }
  }
  JOINT RightUpLeg
  {
    OFFSET -7.06048 -1.2947 -1.0861
    CHANNELS 3 Zrotation Xrotation Yrotation
    JOINT RightUpLegRoll
    {
      OFFSET 0 18.5308 0
      CHANNELS 3 Zrotation Xrotation Yrotation
      JOINT RightLeg
      {
        OFFSET 0 -22.9476 0
        CHANNELS 3 Zrotation Xrotation Yrotation
        JOINT RightLegRoll
        {
          OFFSET 0 23.0226 0
          CHANNELS 3 Zrotation Xrotation Yrotation
          JOINT RightFoot
          {
            OFFSET 0 19.1625 0
            CHANNELS 3 Zrotation Xrotation Yrotation
            JOINT RightToeBase
            {
              OFFSET 0 16.0188 0
              CHANNELS 3 Zrotation Xrotation Yrotation
              End Site
              {
                OFFSET 0.00678979 7.75781 -0.894207
              }
            }
          }
        }
      }
    }
  }
  JOINT LeftUpLeg
  {
    OFFSET 7.06048 -1.2947 -1.0861
    CHANNELS 3 Zrotation Xrotation Yrotation
    JOINT LeftUpLegRoll
    {
      OFFSET 0 18.5309 0
      CHANNELS 3 Zrotation Xrotation Yrotation
      JOINT LeftLeg
      {
        OFFSET 0 22.9475 0
        CHANNELS 3 Zrotation Xrotation Yrotation
        JOINT LeftLegRoll
        {
          OFFSET 0 23.2355 0
          CHANNELS 3 Zrotation Xrotation Yrotation
          JOINT LeftFoot
          {
            OFFSET 0 18.9496 0
            CHANNELS 3 Zrotation Xrotation Yrotation
            JOINT LeftToeBase
            {
              OFFSET 0 16.0188 0
              CHANNELS 3 Zrotation Xrotation Yrotation
              End Site
              {
                OFFSET -0.0304289 7.75781 -0.894207
              }
            }
          }
        }
      }
    }
  }
}
MOTION
Frames: 6
Frame Time: 0.00208333
52.7613 95.6283 4.04412 -0.113379 -0.0303663 0.426497 0.0693282 -2.54996 0.0135978 0.144214 -1.09845 0.0242692 0.14393 0.546621 0.0218586 3.0513 24.3182 2.4435 -5.09695 -0.353685 3.02588 35.8682 -9.70978 -5.85305 47.5396 25.7275 49.1429 -7.95139e-15 -1.59028e-15 2.22639e-14 -4.66759 0.640146 0.785015 1.30594e-06 -3.98305e-06 -3.00208 8.03026 -4.95135 0.697611 -40.0477 -8.56456 4.87836 -44.1522 29.0721 -51.5193 -4.14347e-06 -1.55802e-06 -1.52683e-06 5.60823 -0.038879 -0.685543 3.17364e-06 -1.92141e-06 3.03328 -8.03033 -4.95136 -0.697608 177.357 -0.192723 -3.16741 180 7.01546e-15 178.919 177.797 4.93156 179.584 -1.98545e-06 3.13878e-06 0.0650567 -19.0007 68.2628 19.7677 8.13588 25.2327 -3.48748 -176.532 0.616558 1.89739 4.5067e-06 -1.99009e-05 -1.08874 -2.1754 -5.90572 0.0674481 1.72578e-06 -4.48478e-06 -0.0877514 19.2808 68.6475 -20.0833 -8.13649 25.2327 3.48773 
52.7599 95.6251 4.03939 -0.111191 -0.0314792 0.423364 0.0691695 -2.54951 0.0122979 0.143338 -1.09754 0.0224975 0.143076 0.547529 0.020102 3.05765 24.3155 2.44621 -5.10597 -0.350747 3.02995 35.8758 -9.70225 -5.84595 47.5367 25.7279 49.1409 -9.54166e-15 -4.77083e-15 1.90833e-14 -4.66469 0.638938 0.785129 1.30594e-06 -3.98305e-06 -3.00208 8.03026 -4.95135 0.697611 -40.0428 -8.56946 4.88261 -44.1498 29.079 -51.5251 -4.14347e-06 -1.55802e-06 -1.52683e-06 5.61322 -0.0388791 -0.685605 3.17364e-06 -1.92141e-06 3.0333 -8.03033 -4.95136 -0.697608 177.353 -0.189049 -3.16408 180 7.01546e-15 178.919 177.796 4.93801 179.584 -1.98545e-06 3.13878e-06 0.0650365 -19.0028 68.2653 19.77 8.13588 25.2327 -3.48748 -176.534 0.612747 1.89798 4.5067e-06 -1.99009e-05 -1.08873 -2.17648 -5.9003 0.0671272 1.72578e-06 -4.48478e-06 -0.0877008 19.2794 68.6457 -20.0817 -8.13649 25.2327 3.48773 
52.7683 95.624 4.04622 -0.108907 -0.0327658 0.42026 0.0690109 -2.54907 0.0109755 0.142421 -1.09658 0.0207044 0.142182 0.548492 0.0183247 3.06388 24.3133 2.44882 -5.11459 -0.347756 3.03394 35.8842 -9.69415 -5.83833 47.5335 25.7269 49.1387 -1.59028e-15 -3.18055e-15 1.90833e-14 -4.6616 0.638868 0.785353 1.30594e-06 -3.98305e-06 -3.00208 8.03026 -4.95135 0.697611 -40.0387 -8.57449 4.88702 -44.1462 29.0864 -51.5315 -4.14347e-06 -1.55802e-06 -1.52683e-06 5.6183 -0.0388791 -0.68569 3.17364e-06 -1.92141e-06 3.03332 -8.03033 -4.95136 -0.697608 177.349 -0.185407 -3.16055 180 7.01546e-15 178.919 177.794 4.9448 179.584 -1.98545e-06 3.13878e-06 0.0650174 -19.005 68.2678 19.7723 8.13588 25.2327 -3.48748 -176.537 0.608613 1.89866 4.5067e-06 -1.99009e-05 -1.08873 -2.17751 -5.89469 0.0668121 1.72578e-06 -4.48478e-06 -0.0876503 19.2779 68.6438 -20.0801 -8.13649 25.2327 3.48773 
52.7658 95.6254 4.04266 -0.106585 -0.0341608 0.417136 0.0688617 -2.54863 0.00965066 0.141498 -1.09557 0.0189079 0.141282 0.549493 0.0165439 3.06977 24.3112 2.4514 -5.12265 -0.344591 3.03784 35.8931 -9.68563 -5.83033 47.5302 25.725 49.1363 -1.11319e-14 0 1.59028e-14 -4.65842 0.639667 0.785663 1.30594e-06 -3.98305e-06 -3.00208 8.03026 -4.95135 0.697611 -40.0353 -8.57965 4.89155 -44.1418 29.0941 -51.5383 -4.14347e-06 -1.55802e-06 -1.52683e-06 5.62334 -0.0388791 -0.685794 3.17364e-06 -1.92141e-06 3.03334 -8.03033 -4.95136 -0.697608 177.345 -0.181722 -3.15694 180 7.01546e-15 178.919 177.792 4.95187 179.584 -1.98545e-06 3.13878e-06 0.0650014 -19.0072 68.2704 19.7747 8.13588 25.2327 -3.48748 -176.539 0.604303 1.89938 4.5067e-06 -1.99009e-05 -1.08872 -2.1785 -5.889 0.0665073 1.72578e-06 -4.48478e-06 -0.0875999 19.2764 68.6419 -20.0785 -8.13649 25.2327 3.48773 
52.7654 95.6274 4.02513 -0.104277 -0.0355984 0.413942 0.0687314 -2.5482 0.00834336 0.140606 -1.09455 0.017126 0.140412 0.550519 0.0147772 3.07506 24.3091 2.45402 -5.12993 -0.341132 3.04168 35.9021 -9.67687 -5.82209 47.5272 25.7224 49.1338 -3.18055e-15 -4.77083e-15 1.27222e-14 -4.65524 0.641066 0.786033 1.30594e-06 -3.98305e-06 -3.00208 8.03026 -4.95135 0.697611 -40.0325 -8.58492 4.8962 -44.1367 29.1018 -51.5453 -4.14347e-06 -1.55802e-06 -1.52683e-06 5.62824 -0.0388792 -0.685915 3.17364e-06 -1.92141e-06 3.03335 -8.03033 -4.95136 -0.697608 177.341 -0.177918 -3.15334 180 7.01546e-15 178.919 177.79 4.95917 179.584 -1.98545e-06 3.13878e-06 0.0649903 -19.0095 68.273 19.7772 8.13588 25.2327 -3.48748 -176.541 0.599958 1.90009 4.5067e-06 -1.99009e-05 -1.08872 -2.17947 -5.88333 0.0662172 1.72578e-06 -4.48478e-06 -0.0875496 19.2749 68.64 -20.0768 -8.13649 25.2327 3.48773 
52.7625 95.6265 4.02636 -0.10204 -0.0370133 0.410629 0.0686292 -2.54777 0.00707364 0.13978 -1.09351 0.0153765 0.139608 0.551554 0.0130416 3.07954 24.3067 2.45676 -5.13626 -0.33726 3.04544 35.9108 -9.66803 -5.81378 47.5247 25.7195 49.131 -7.95139e-15 1.27222e-14 1.90833e-14 -4.65215 0.642797 0.786438 1.30594e-06 -3.98305e-06 -3.00208 8.03026 -4.95135 0.697611 -40.0301 -8.59029 4.90096 -44.1312 29.1093 -51.5522 -4.14347e-06 -1.55802e-06 -1.52683e-06 5.63289 -0.0388793 -0.686048 3.17364e-06 -1.92141e-06 3.03337 -8.03033 -4.95136 -0.697608 177.337 -0.173921 -3.14984 180 7.01546e-15 178.919 177.788 4.96665 179.584 -1.98545e-06 3.13878e-06 0.0649859 -19.0119 68.2757 19.7797 8.13588 25.2327 -3.48748 -176.543 0.595723 1.90074 4.5067e-06 -1.99009e-05 -1.08871 -2.18045 -5.87779 0.0659463 1.72578e-06 -4.48478e-06 -0.0874996 19.2734 68.6381 -20.0752 -8.13649 25.2327 3.48773 
